HIERARCHY
ROOT Hips
{
	OFFSET 0.000000 0.000000 0.000000
	CHANNELS 6 Xposition Yposition Zposition Xrotation Yrotation Zrotation
	JOINT LeftUpLeg_virtual
	{
		OFFSET 0.000000 0.000000 0.000000
		CHANNELS 3 Xrotation Yrotation Zrotation
		JOINT LeftUpLeg
		{
			OFFSET 11.394100 -6.187798 -0.413800
			CHANNELS 3 Xrotation Yrotation Zrotation
			JOINT LeftLeg
			{
				OFFSET 0.430247 -32.302673 3.732800
				CHANNELS 3 Xrotation Yrotation Zrotation
				JOINT LeftFoot
				{
					OFFSET -0.430247 -48.264931 -6.423300
					CHANNELS 3 Xrotation Yrotation Zrotation
					JOINT LeftToeBase
					{
						OFFSET 4.230900 -16.068199 23.438400
						CHANNELS 3 Xrotation Yrotation Zrotation
						JOINT LeftToe_End
						{
							OFFSET 4.510700 0.695400 19.974600
							CHANNELS 3 Xrotation Yrotation Zrotation
							End Site
							{
								OFFSET 0 0 0
							}
						}
					}
				}
			}
		}
	}
	JOINT RightUpLeg_virtual
	{
		OFFSET 0.000000 0.000000 0.000000
		CHANNELS 3 Xrotation Yrotation Zrotation
		JOINT RightUpLeg
		{
			OFFSET -11.333700 -6.187798 -0.413800
			CHANNELS 3 Xrotation Yrotation Zrotation
			JOINT RightLeg
			{
				OFFSET -0.430392 -32.302628 3.733000
				CHANNELS 3 Xrotation Yrotation Zrotation
				JOINT RightFoot
				{
					OFFSET 0.430392 -48.264973 -6.423500
					CHANNELS 3 Xrotation Yrotation Zrotation
					JOINT RightToeBase
					{
						OFFSET -4.230900 -16.068199 23.438400
						CHANNELS 3 Xrotation Yrotation Zrotation
						JOINT RightToe_End
						{
							OFFSET -4.510700 0.695400 19.974600
							CHANNELS 3 Xrotation Yrotation Zrotation
							End Site
							{
								OFFSET 0 0 0
							}
						}
					}
				}
			}
		}
	}
	JOINT Spine_virtual
	{
		OFFSET 0.000000 0.000000 0.000000
		CHANNELS 3 Xrotation Yrotation Zrotation
		JOINT Spine
		{
			OFFSET -0.002400 12.777504 0.315300
			CHANNELS 3 Xrotation Yrotation Zrotation
			JOINT Spine1
			{
				OFFSET -0.002067 5.816869 0.032633
				CHANNELS 3 Xrotation Yrotation Zrotation
				JOINT Spine1_split
				{
					OFFSET -0.002067 5.816869 0.032633
					CHANNELS 3 Xrotation Yrotation Zrotation
					JOINT Spine2
					{
						OFFSET -0.002067 5.816869 0.032633
						CHANNELS 3 Xrotation Yrotation Zrotation
						JOINT Neck_virtual
						{
							OFFSET 0.000000 0.000000 0.000000
							CHANNELS 3 Xrotation Yrotation Zrotation
							JOINT Neck
							{
								OFFSET -0.003700 21.199493 -0.826900
								CHANNELS 3 Xrotation Yrotation Zrotation
								JOINT Head
								{
									OFFSET 0.000000 20.442200 4.834800
									CHANNELS 3 Xrotation Yrotation Zrotation
									JOINT HeadTop_End
									{
										OFFSET 0.000000 34.668396 4.968400
										CHANNELS 3 Xrotation Yrotation Zrotation
										End Site
										{
											OFFSET 0 0 0
										}
									}
								}
							}
						}
						JOINT LeftShoulder_virtual
						{
							OFFSET 0.000000 0.000000 0.000000
							CHANNELS 3 Xrotation Yrotation Zrotation
							JOINT LeftShoulder
							{
								OFFSET 3.288150 8.794197 -1.372250
								CHANNELS 3 Xrotation Yrotation Zrotation
								JOINT LeftShoulder_split
								{
									OFFSET 3.288150 8.794197 -1.372250
									CHANNELS 3 Xrotation Yrotation Zrotation
									JOINT LeftArm
									{
										OFFSET 11.953299 -2.279007 -0.146200
										CHANNELS 3 Xrotation Yrotation Zrotation
										JOINT LeftForeArm
										{
											OFFSET 18.448900 0.000000 0.000000
											CHANNELS 3 Xrotation Yrotation Zrotation
											JOINT LeftHand
											{
												OFFSET 29.527798 0.000000 0.000000
												CHANNELS 3 Xrotation Yrotation Zrotation
												End Site
												{
													OFFSET 0 0 0
												}
											}
										}
									}
								}
							}
						}
						JOINT RightShoulder_virtual
						{
							OFFSET 0.000000 0.000000 0.000000
							CHANNELS 3 Xrotation Yrotation Zrotation
							JOINT RightShoulder
							{
								OFFSET -3.249400 8.794197 -1.372250
								CHANNELS 3 Xrotation Yrotation Zrotation
								JOINT RightShoulder_split
								{
									OFFSET -3.249400 8.794197 -1.372250
									CHANNELS 3 Xrotation Yrotation Zrotation
									JOINT RightArm
									{
										OFFSET -11.953299 -2.279007 -0.146200
										CHANNELS 3 Xrotation Yrotation Zrotation
										JOINT RightForeArm
										{
											OFFSET -18.448900 0.000000 0.000000
											CHANNELS 3 Xrotation Yrotation Zrotation
											JOINT RightHand
											{
												OFFSET -29.527802 0.000000 0.000000
												CHANNELS 3 Xrotation Yrotation Zrotation
												End Site
												{
													OFFSET 0 0 0
												}
											}
										}
									}
								}
							}
						}
					}
				}
			}
		}
	}
}
MOTION
Frames: 9
Frame Time: 0.03333333
-10.937496 64.132172 -2.341957 0.000000 0.000000 0.000000 -2.948632 -3.980612 -0.675146 -85.881077 -8.879573 2.094079 69.073450 -12.614163 -3.954541 21.602866 -3.186367 0.854892 -4.279850 1.198877 1.372939 0.000000 0.000000 0.000000 -3.031174 1.540534 -0.485563 9.690415 2.877910 -7.412923 83.638808 -0.048283 -2.448003 -57.719675 -9.123765 16.262353 -39.092137 0.732138 -2.092604 0.000000 0.000000 0.000000 -6.163791 3.200957 -1.601397 11.620742 1.572072 -1.356503 5.643077 0.919639 -3.418295 0.409461 -0.876480 0.139716 0.000000 0.000000 0.000000 5.210396 0.886103 -2.899442 1.554491 -3.275899 9.899193 13.303764 1.229439 -6.001771 0.000000 0.000000 0.000000 4.987197 0.642344 -2.264172 -7.429176 -39.274261 -6.481014 -0.998197 -4.987528 -2.924392 -37.738359 -14.636173 -33.023452 -92.963321 -55.457321 -88.030811 0.000000 0.000000 0.000000 4.858547 0.545748 -2.664504 -8.752350 30.398378 12.187626 -3.027741 -2.923902 5.060854 -47.626250 6.531987 38.902329 -130.154159 54.691210 128.317575 0.000000 0.000000 0.000000 
-11.061363 68.651741 -1.879025 0.000000 0.000000 0.000000 -1.013214 -2.403778 -0.176280 -80.437649 -9.174527 0.933605 58.348783 -13.963336 -2.512452 25.092030 -4.885568 -0.434603 -5.952325 0.969586 1.938374 0.000000 0.000000 0.000000 -0.993364 3.565268 -0.097901 9.097386 0.499462 -6.296733 75.650786 -1.879665 -2.468269 -53.680045 -9.040500 16.518857 -36.121158 1.377911 -3.037815 0.000000 0.000000 0.000000 -4.038586 4.078750 -1.250821 10.618364 1.476626 -1.402768 3.582865 0.514829 -3.932095 1.249482 -0.700566 0.326186 0.000000 0.000000 0.000000 3.123002 0.446747 -3.037506 -5.237883 -3.572237 8.761245 13.178911 0.429527 -6.287472 0.000000 0.000000 0.000000 2.819590 0.356466 -2.568034 -6.657496 -34.614299 -5.845112 -0.564274 -6.419521 -1.544691 -27.844251 -13.283969 -23.822665 -110.748669 -62.252817 -108.995947 0.000000 0.000000 0.000000 2.735580 0.107925 -3.077405 -7.749603 25.604719 9.310988 -2.985572 -1.738356 3.776938 -38.603604 11.067008 35.023130 -148.077340 57.865096 148.005883 0.000000 0.000000 0.000000 
-11.255315 74.205719 -1.030312 0.000000 0.000000 0.000000 1.221635 -1.049462 -0.019998 -74.563707 -9.367412 0.717716 45.300830 -14.735759 -1.937294 29.825636 -6.012265 -1.267061 -6.140044 0.685039 2.299661 0.000000 0.000000 0.000000 1.297383 4.606133 0.062814 8.533353 -1.727354 -5.287746 64.698605 -3.499041 -2.698136 -46.595506 -7.889766 16.590681 -34.713268 1.893770 -3.152724 0.000000 0.000000 0.000000 -1.409946 4.523725 -1.096509 9.001625 1.689318 -1.154241 1.360456 0.457218 -4.371151 1.415562 -0.944544 0.671890 0.000000 0.000000 0.000000 1.092991 0.194524 -3.115910 -14.575477 -4.072242 7.219053 12.778533 -0.331749 -6.956759 0.000000 0.000000 0.000000 0.626464 0.356421 -2.879761 -5.856322 -28.241524 -5.143852 -0.545745 -6.406344 0.195157 -20.647110 -9.068751 -15.874289 -118.736855 -71.636171 -120.435442 0.000000 0.000000 0.000000 0.711279 -0.057598 -3.474327 -7.097054 20.218378 6.326190 -3.117766 -0.031921 2.273037 -27.225979 12.365092 27.793981 -163.634161 63.602407 165.730073 0.000000 0.000000 0.000000 
-11.439023 80.194656 0.144165 0.000000 0.000000 0.000000 3.545727 -0.361605 -0.478209 -68.527664 -9.141010 1.684350 32.062325 -14.332023 -1.945587 33.545292 -6.032399 -1.425628 -4.929917 0.472294 2.138656 0.000000 0.000000 0.000000 3.648097 4.360263 -0.246236 7.924843 -3.620743 -4.267361 51.952625 -4.631950 -3.092948 -36.645129 -5.564411 16.259509 -35.276558 2.342225 -2.596630 0.000000 0.000000 0.000000 1.309176 4.403814 -1.396799 7.172212 2.234935 -0.623783 -0.673195 0.821884 -4.534658 1.469088 -1.239783 1.005312 0.000000 0.000000 0.000000 -0.746768 0.256656 -2.991391 -25.991161 -4.604263 5.390597 12.313427 -0.948611 -7.863796 0.000000 0.000000 0.000000 -1.230357 0.653624 -3.082075 -5.040307 -20.749831 -4.175231 -1.459262 -4.867806 1.323980 -16.865585 -3.204012 -9.730821 -55.549327 -84.734036 -61.179534 0.000000 0.000000 0.000000 -0.946938 0.153431 -3.655487 -6.882729 14.512444 3.556272 -3.363773 1.399286 1.011746 -15.006714 8.919773 19.246329 173.614338 74.700645 -168.856551 0.000000 0.000000 0.000000 
-11.554253 85.679909 1.439163 0.000000 0.000000 0.000000 5.552249 -0.786671 -1.408499 -62.881146 -8.431392 3.586336 21.673363 -13.322682 -1.812234 34.796672 -5.394981 -1.271112 -3.794010 0.320979 1.841435 0.000000 0.000000 0.000000 5.593871 3.531683 -1.169750 7.134971 -5.205667 -3.182892 40.084014 -5.185355 -3.475113 -25.075479 -2.428508 15.313054 -38.783508 2.883390 -1.896808 0.000000 0.000000 0.000000 3.584185 3.724087 -2.145115 5.647826 3.051734 0.093425 -2.130200 1.524343 -4.278413 1.278560 -1.552004 0.888611 0.000000 0.000000 0.000000 -2.169926 0.627960 -2.586397 -38.128035 -4.834037 3.556020 12.114727 -1.455491 -8.844143 0.000000 0.000000 0.000000 -2.519255 1.255311 -3.000239 -4.375356 -13.132094 -2.773518 -3.229521 -2.720844 1.931972 -15.695517 3.733284 -5.290481 22.457802 -63.798106 12.009671 0.000000 0.000000 0.000000 -2.120817 0.752515 -3.435643 -7.094905 8.882999 1.209066 -3.487639 2.281606 0.290318 -4.543870 0.937045 11.769294 73.459812 78.970989 -65.570410 0.000000 0.000000 0.000000 
-11.572285 89.875824 2.860310 0.000000 0.000000 0.000000 6.776207 -2.120737 -2.672498 -58.418342 -7.561805 5.863410 16.331092 -12.698765 -1.248090 33.696253 -4.827948 -1.169727 -4.359349 0.175698 1.755913 0.000000 0.000000 0.000000 6.858598 2.464779 -2.531637 6.111701 -6.522195 -2.195334 31.869263 -5.060227 -3.601067 -13.382647 0.992184 14.124223 -45.263595 3.480677 -1.464724 0.000000 0.000000 0.000000 4.818066 2.654057 -3.201358 4.865421 3.920498 0.837626 -2.883161 2.348869 -3.583639 1.469486 -1.732390 0.775698 0.000000 0.000000 0.000000 -2.966947 1.210770 -1.899186 -49.153562 -4.521116 1.975825 12.400688 -1.686499 -9.673008 0.000000 0.000000 0.000000 -3.097995 1.982660 -2.524892 -4.001798 -6.184364 -0.418835 -4.848797 -1.209767 1.700622 -16.010961 10.170362 -2.282136 28.595449 -36.323807 12.426389 0.000000 0.000000 0.000000 -2.727676 1.543187 -2.747714 -7.585828 3.754615 -0.615791 -3.796152 2.641920 0.213000 2.978204 -9.312863 6.734927 36.399342 58.456638 -24.875066 0.000000 0.000000 0.000000 
-11.443587 92.433815 4.148895 0.000000 0.000000 0.000000 7.048093 -3.770645 -3.992573 -55.734166 -6.882740 7.823221 16.575717 -12.833830 -0.365874 30.876779 -4.703416 -1.148309 -6.201057 0.070556 1.911148 0.000000 0.000000 0.000000 7.197467 1.582192 -4.096864 4.683999 -7.757737 -1.684773 28.991202 -4.159695 -3.385414 -3.146825 4.257406 13.201967 -52.455153 3.989962 -1.323768 0.000000 0.000000 0.000000 5.054978 1.444586 -4.326696 4.838807 4.655854 1.432246 -3.003504 3.118007 -2.603903 2.281377 -1.141597 0.487557 0.000000 0.000000 0.000000 -3.115510 1.887308 -1.044753 -57.328278 -3.669937 1.048700 13.262948 -1.438247 -10.232108 0.000000 0.000000 0.000000 -3.138547 2.748132 -1.661701 -4.145825 -0.398723 2.637500 -5.723746 -0.965491 1.254058 -16.400766 14.451833 -0.976922 32.330615 -15.799061 10.094207 0.000000 0.000000 0.000000 -2.861172 2.320867 -1.816876 -8.191012 -0.693090 -2.019519 -4.493877 2.134898 0.671679 7.459007 -19.404533 3.547456 28.872480 38.546234 -13.601920 0.000000 0.000000 0.000000 
-11.255013 93.377243 5.175472 0.000000 0.000000 0.000000 6.498832 -4.817801 -5.036642 -54.946457 -6.593845 9.013379 21.190609 -13.418748 0.594762 27.250857 -4.938409 -1.028478 -7.524786 0.077404 1.964065 0.000000 0.000000 0.000000 6.529710 1.520887 -5.472123 3.074646 -9.026174 -1.856468 30.630472 -2.824482 -3.032532 4.262639 6.924330 12.382041 -57.800845 4.350252 -1.295867 0.000000 0.000000 0.000000 4.374795 0.583600 -5.225525 5.369765 5.104705 1.760838 -2.681450 3.685794 -1.568340 2.325912 -0.343517 0.402875 0.000000 0.000000 0.000000 -2.610813 2.498090 -0.249835 -61.796744 -2.507694 0.895652 14.520453 -0.673052 -10.513388 0.000000 0.000000 0.000000 -2.799704 3.432081 -0.567825 -4.802363 3.541759 6.131365 -5.432689 -1.340734 0.479324 -16.649025 16.567182 -0.428223 35.874281 -6.201141 8.405843 0.000000 0.000000 0.000000 -2.713932 2.891260 -0.851967 -8.837122 -4.170797 -3.159017 -5.390875 1.729740 1.069554 8.853085 -28.061103 0.960866 26.042437 25.808689 -7.416722 0.000000 0.000000 0.000000 
-11.005799 93.140587 5.986973 0.000000 0.000000 0.000000 5.392108 -4.532611 -5.633508 -55.364977 -6.648526 9.148459 27.154824 -13.817755 1.292212 23.655119 -5.263624 -0.997611 -7.274606 0.281292 1.489619 0.000000 0.000000 0.000000 5.386238 1.923939 -6.213201 1.654106 -10.213801 -2.594169 34.514906 -1.459176 -2.866722 8.254218 8.531833 11.627703 -61.016259 4.507623 -1.304784 0.000000 0.000000 0.000000 3.067026 0.369884 -5.731633 6.089911 5.130910 1.772259 -2.211070 3.999240 -0.731293 2.035998 0.543458 0.626305 0.000000 0.000000 0.000000 -1.736297 2.961802 0.288926 -62.499926 -1.345914 1.472256 15.792321 0.508902 -10.460074 0.000000 0.000000 0.000000 -2.264758 3.879356 0.449207 -5.606127 5.252194 9.468052 -3.883730 -1.901482 -0.142716 -16.902934 16.908587 0.314692 39.052027 -5.009528 7.843724 0.000000 0.000000 0.000000 -2.318176 3.165254 -0.133721 -9.386260 -6.465434 -4.014649 -6.101711 1.497695 0.971276 7.960917 -34.171689 -1.416792 24.395445 20.146188 -3.331817 0.000000 0.000000 0.000000 
